<?xml version="1.0" encoding="UTF-8" standalone="no" ?>
<!DOCTYPE svg PUBLIC "-//W3C//DTD SVG 1.1//EN" "http://www.w3.org/Graphics/SVG/1.1/DTD/svg11.dtd">
<svg xmlns="http://www.w3.org/2000/svg" xmlns:xlink="http://www.w3.org/1999/xlink" version="1.1" width="1080" height="1080" viewBox="0 0 1080 1080" xml:space="preserve">
<desc>Created with Fabric.js 5.2.4</desc>
<defs>
</defs>
<g transform="matrix(1 0 0 1 540 540)" id="7788702b-9a22-4ad1-8748-f46a2f67167c"  >
<rect style="stroke: none; stroke-width: 1; stroke-dasharray: none; stroke-linecap: butt; stroke-dashoffset: 0; stroke-linejoin: miter; stroke-miterlimit: 4; fill: rgb(255,255,255); fill-rule: nonzero; opacity: 1; visibility: hidden;" vector-effect="non-scaling-stroke"  x="-540" y="-540" rx="0" ry="0" width="1080" height="1080" />
</g>
<g transform="matrix(1 0 0 1 540 540)" id="74bd41f3-c192-4bc8-90a8-63d689134dcb"  >
</g>
<g transform="matrix(1.9 0 0 1.9 540 540)"  >
<g style=""   >
		<g transform="matrix(1 0 0 1 269.55 -26.99)"  >
<path style="stroke: none; stroke-width: 1; stroke-dasharray: none; stroke-linecap: butt; stroke-dashoffset: 0; stroke-linejoin: miter; stroke-miterlimit: 4; fill: rgb(24,130,255); fill-rule: evenodd; opacity: 1;" vector-effect="non-scaling-stroke"  transform=" translate(-553.55, -53.01)" d="M 553.553 64.6103 C 559.959 64.6103 565.153 59.4168 565.153 53.0103 C 565.153 46.6038 559.959 41.4103 553.553 41.4103 C 547.146 41.4103 541.953 46.6038 541.953 53.0103 C 541.953 59.4168 547.146 64.6103 553.553 64.6103 Z M 553.553 67.0103 C 561.285 67.0103 567.553 60.7422 567.553 53.0103 C 567.553 45.2783 561.285 39.0103 553.553 39.0103 C 545.821 39.0103 539.553 45.2783 539.553 53.0103 C 539.553 60.7422 545.821 67.0103 553.553 67.0103 Z" stroke-linecap="round" />
</g>
		<g transform="matrix(1 0 0 1 270.36 -26.99)"  >
<path style="stroke: none; stroke-width: 1; stroke-dasharray: none; stroke-linecap: butt; stroke-dashoffset: 0; stroke-linejoin: miter; stroke-miterlimit: 4; fill: rgb(24,130,255); fill-rule: nonzero; opacity: 1;" vector-effect="non-scaling-stroke"  transform=" translate(-554.36, -53.01)" d="M 560.006 60.0419 L 557.166 60.0419 L 555.295 56.287 C 554.926 55.5633 554.448 55.0171 553.22 55.0171 L 551.267 55.0171 L 551.267 60.0419 L 548.714 60.0419 L 548.714 45.978 L 554.039 45.978 C 557.288 45.978 559.35 47.3844 559.35 50.361 C 559.35 52.4092 558.244 53.7336 556.756 54.4163 C 557.234 54.6758 557.534 55.14 557.807 55.6588 L 560.006 60.0419 Z M 553.984 52.8051 C 555.65 52.8051 556.797 52.1361 556.797 50.4293 C 556.797 48.8454 555.691 48.2037 553.984 48.2037 L 551.294 48.2037 L 551.294 52.8051 L 553.984 52.8051 Z" stroke-linecap="round" />
</g>
		<g transform="matrix(1 0 0 1 -43.6 -2.79)"  >
<path style="stroke: none; stroke-width: 1; stroke-dasharray: none; stroke-linecap: butt; stroke-dashoffset: 0; stroke-linejoin: miter; stroke-miterlimit: 4; fill: rgb(24,130,255); fill-rule: nonzero; opacity: 1;" vector-effect="non-scaling-stroke"  transform=" translate(-240.4, -77.21)" d="M 261.208 91.3469 C 261.241 95.3568 260.81 99.3337 260.391 103.322 C 259.673 109.452 258.734 115.561 258.303 121.725 C 258.06 125.128 246.571 124.299 246.825 120.897 C 247.289 114.611 248.195 108.37 248.946 102.106 C 249.333 98.4499 249.719 94.7824 249.697 91.1039 C 246.56 95.3679 243.821 99.897 241.213 104.504 C 237.822 110.734 234.806 117.13 231.813 123.559 C 228.764 128.132 229.46 128.773 220.236 124.675 C 219.253 124.244 219.717 122.576 219.65 121.504 C 219.606 120.786 219.772 120.057 219.893 119.339 C 220.181 117.638 220.877 114.976 221.263 113.374 C 223.826 103.62 226.278 93.8434 228.488 84.0119 C 230.995 72.4128 234.475 56.8591 236.242 45.1385 C 237.093 39.6262 237.844 34.1029 238.761 28.6016 C 239.501 25.2655 250.736 27.762 249.996 31.0981 C 249.178 36.3564 248.427 41.6257 247.621 46.8949 C 245.908 58.2731 242.506 73.4954 240.098 84.7409 C 240.827 83.7357 241.556 82.7305 242.318 81.7473 C 244.826 78.7205 248.074 75.4507 252.459 75.9809 C 253.884 76.1466 255.32 76.6879 256.491 77.5164 C 257.673 78.356 258.347 79.7368 259.275 80.8415 C 259.684 81.9351 260.203 82.9956 260.501 84.1334 C 261.075 86.3869 261.186 89.0271 261.208 91.3469 Z" stroke-linecap="round" />
</g>
		<g transform="matrix(1 0 0 1 9.43 18.45)"  >
<path style="stroke: none; stroke-width: 1; stroke-dasharray: none; stroke-linecap: butt; stroke-dashoffset: 0; stroke-linejoin: miter; stroke-miterlimit: 4; fill: rgb(24,130,255); fill-rule: nonzero; opacity: 1;" vector-effect="non-scaling-stroke"  transform=" translate(-293.43, -98.45)" d="M 319.634 73.6392 C 317.734 78.1573 316.53 82.9515 315.238 87.6685 C 312.741 97.4559 310.885 107.365 309.405 117.351 C 308.544 124.001 308.919 120.698 308.267 127.282 C 307.925 130.684 296.48 129.547 296.812 126.144 C 297.508 119.152 297.11 122.653 298.016 115.672 C 298.325 113.573 298.668 111.474 299.01 109.375 C 295.111 113.032 290.791 116.522 285.909 118.456 C 284.705 118.931 283.423 119.174 282.186 119.527 C 281.059 119.571 279.921 119.748 278.795 119.66 C 275.05 119.395 271.371 117.373 269.295 114.236 C 268.753 113.418 268.378 112.501 267.925 111.629 C 267.704 110.789 267.417 109.972 267.273 109.121 C 266.5 104.581 268.013 100.074 269.582 95.8762 C 270.068 94.8047 270.499 93.711 271.018 92.6505 C 274.056 86.5748 278.342 81.184 283.434 76.6991 C 284.495 75.8485 285.511 74.9427 286.616 74.1584 C 290.814 71.1647 295.177 69.4856 300.347 69.9385 C 301.087 70.06 301.838 70.1263 302.567 70.292 C 304.423 70.7118 306.135 71.5292 307.704 72.5676 C 308.201 71.1868 308.731 69.828 309.328 68.4914 C 310.874 65.4425 321.17 70.5903 319.634 73.6392 Z M 304.047 85.0173 C 303.727 84.8184 303.473 84.5644 303.363 84.2109 C 303.075 83.6033 302.611 83.1283 302.103 82.6975 C 301.209 81.8137 300.104 81.3829 298.856 81.3498 C 295.508 81.2724 293.122 83.6143 290.703 85.6359 C 285.931 89.8336 282.617 94.7163 280.12 100.516 C 279.502 102.714 277.723 106.028 278.96 108.304 C 279.027 108.293 279.093 108.282 279.159 108.282 C 279.27 108.348 279.358 108.469 279.491 108.469 C 279.557 108.469 279.524 108.315 279.59 108.304 C 279.734 108.271 279.877 108.348 280.021 108.348 C 280.606 108.337 280.595 108.282 281.17 108.072 C 286.229 105.829 290.272 101.985 294.128 98.1187 C 297.066 95.0477 299.518 91.5569 301.429 87.7568 C 301.783 87.0609 302.611 86.8179 303.628 86.8621 C 303.749 86.2435 303.893 85.6248 304.047 85.0173 Z" stroke-linecap="round" />
</g>
		<g transform="matrix(1 0 0 1 56.59 16.98)"  >
<path style="stroke: none; stroke-width: 1; stroke-dasharray: none; stroke-linecap: butt; stroke-dashoffset: 0; stroke-linejoin: miter; stroke-miterlimit: 4; fill: rgb(24,130,255); fill-rule: nonzero; opacity: 1;" vector-effect="non-scaling-stroke"  transform=" translate(-340.59, -96.98)" d="M 360.639 81.5598 L 359.8 85.7134 C 359.502 87.2157 358.375 88.3977 356.894 88.8175 C 343.926 92.5402 334.205 109.696 331.874 123.836 C 331.321 127.205 319.999 125.614 320.474 122.223 C 321.291 116.456 329.355 74.6004 331.178 69.2096 C 332.68 66.1386 343.02 71.187 341.517 74.258 C 340.567 78.3673 340.092 80.9523 339.308 85.1279 C 342.423 80.0022 351.073 77.1964 356.298 76.6772 C 359.004 76.4121 361.181 78.8865 360.639 81.5598 Z" stroke-linecap="round" />
</g>
		<g transform="matrix(1 0 0 1 92.82 19.49)"  >
<path style="stroke: none; stroke-width: 1; stroke-dasharray: none; stroke-linecap: butt; stroke-dashoffset: 0; stroke-linejoin: miter; stroke-miterlimit: 4; fill: rgb(24,130,255); fill-rule: nonzero; opacity: 1;" vector-effect="non-scaling-stroke"  transform=" translate(-376.82, -99.49)" d="M 397.79 117.495 C 395.393 119.163 392.962 120.765 390.289 121.969 C 383.661 124.962 376.713 127.525 369.322 127.393 C 366.041 126.995 364.561 127.083 361.512 125.592 C 357.756 123.769 354.939 120.522 353.791 116.49 C 353.426 115.197 353.426 113.816 353.238 112.48 C 353.36 111.276 353.382 110.06 353.592 108.867 C 354.476 103.697 356.729 98.7154 359.402 94.12 C 359.369 93.634 359.325 93.1589 359.336 92.6729 C 359.336 91.6787 360.286 90.9606 361.623 90.5188 C 361.844 90.1763 362.065 89.8228 362.286 89.4914 C 363.302 88.1658 364.263 86.796 365.346 85.5257 C 369.455 80.6541 374.481 76.1802 380.369 73.5842 C 381.728 72.9877 383.164 72.6121 384.556 72.115 C 386.091 71.9493 387.627 71.4963 389.173 71.6068 C 394.188 71.9603 397.889 75.0644 399.568 79.6599 C 399.9 80.5547 400.032 81.5157 400.264 82.4547 C 400.308 83.3274 400.419 84.189 400.397 85.0617 C 400.242 89.5025 398.298 93.5566 395.812 97.1468 C 392.487 101.378 388.842 104.813 383.992 107.277 C 379.253 109.442 374.702 110.889 369.521 109.276 C 368.704 108.912 367.853 108.613 367.069 108.171 C 366.826 108.039 366.616 107.884 366.384 107.741 C 365.942 109.055 365.6 110.392 365.412 111.728 C 365.323 112.281 365.379 112.855 365.368 113.419 C 365.489 113.695 365.566 113.993 365.732 114.236 C 366.516 115.385 369.344 115.286 370.482 115.319 C 375.685 115.054 380.601 113.065 385.285 110.933 C 387.24 110.016 389.041 108.878 390.775 107.608 C 393.702 105.498 400.728 115.407 397.79 117.495 Z M 374.304 93.7113 C 373.564 94.606 372.901 95.5561 372.217 96.484 C 372.371 96.97 373.774 98.5608 373.84 97.909 C 375.586 97.898 377.287 97.0142 378.833 96.2631 C 381.805 94.6834 384.191 92.3967 386.191 89.7234 C 387.395 87.8344 388.643 85.7245 388.157 83.4268 C 388.035 83.2611 387.185 82.3332 387.306 83.0954 C 387.34 83.2832 387.594 83.482 387.483 83.6367 C 387.306 83.9018 386.931 83.9349 386.655 84.0786 C 381.706 86.0228 377.663 89.6571 374.304 93.7113 Z" stroke-linecap="round" />
</g>
		<g transform="matrix(1 0 0 1 142.64 -0.55)"  >
<path style="stroke: none; stroke-width: 1; stroke-dasharray: none; stroke-linecap: butt; stroke-dashoffset: 0; stroke-linejoin: miter; stroke-miterlimit: 4; fill: rgb(24,130,255); fill-rule: nonzero; opacity: 1;" vector-effect="non-scaling-stroke"  transform=" translate(-426.64, -79.45)" d="M 459.806 46.6521 C 459.773 46.6079 459.751 46.5747 459.718 46.5305 C 456.415 45.5474 452.891 45.9119 449.488 45.7462 C 443.192 45.8125 436.884 45.9672 430.609 46.5305 C 430.344 49.6899 429.958 52.8493 429.56 55.9976 C 428.29 66.1716 426.522 76.2793 424.733 86.3871 C 423.12 95.2907 421.463 104.194 419.861 113.109 C 419.276 116.324 418.767 119.549 418.315 122.797 C 417.851 126.177 406.439 124.598 406.914 121.217 C 407.389 117.826 407.909 114.446 408.527 111.076 C 410.129 102.173 411.786 93.2802 413.388 84.3766 C 415.144 74.4677 416.878 64.5477 418.127 54.5505 C 418.414 52.2969 418.701 50.0434 418.933 47.7788 C 414.062 48.3533 409.201 49.016 404.407 50.0103 C 400.562 50.8056 396.674 51.5347 393.029 53.0371 C 389.825 54.2412 385.782 43.4596 388.986 42.2555 C 393.183 40.5322 397.657 39.6484 402.087 38.7316 C 410.074 37.0746 418.204 36.2461 426.301 35.3623 C 433.957 34.4676 441.667 34.3019 449.367 34.2245 C 453.83 34.1914 458.27 34.3129 462.623 35.3734 C 463.219 35.6053 463.816 35.8484 464.412 36.0804 C 467.55 37.4612 462.943 48.0108 459.806 46.6521 Z" stroke-linecap="round" />
</g>
		<g transform="matrix(1 0 0 1 165.66 16.98)"  >
<path style="stroke: none; stroke-width: 1; stroke-dasharray: none; stroke-linecap: butt; stroke-dashoffset: 0; stroke-linejoin: miter; stroke-miterlimit: 4; fill: rgb(24,130,255); fill-rule: nonzero; opacity: 1;" vector-effect="non-scaling-stroke"  transform=" translate(-449.66, -96.98)" d="M 469.704 81.5598 L 468.864 85.7134 C 468.566 87.2157 467.439 88.3977 465.959 88.8175 C 452.99 92.5402 443.269 109.696 440.938 123.836 C 440.386 127.205 429.063 125.614 429.538 122.223 C 430.355 116.456 438.419 74.6004 440.242 69.2096 C 441.744 66.1386 452.084 71.187 450.582 74.258 C 449.632 78.3673 449.157 80.9523 448.372 85.1279 C 451.488 80.0022 460.137 77.1964 465.362 76.6772 C 468.069 76.4121 470.245 78.8865 469.704 81.5598 Z" stroke-linecap="round" />
</g>
		<g transform="matrix(1 0 0 1 197 -4.53)"  >
<path style="stroke: none; stroke-width: 1; stroke-dasharray: none; stroke-linecap: butt; stroke-dashoffset: 0; stroke-linejoin: miter; stroke-miterlimit: 4; fill: rgb(24,130,255); fill-rule: nonzero; opacity: 1;" vector-effect="non-scaling-stroke"  transform=" translate(-481, -75.47)" d="M 487.412 72.7999 C 487.069 77.1855 486.318 81.5268 485.511 85.8461 C 484.285 92.5293 482.982 99.1905 481.568 105.83 C 480.839 109.497 479.833 113.142 479.69 116.887 C 479.502 120.301 468.002 119.66 468.201 116.247 C 468.257 115.385 468.279 114.523 468.367 113.673 C 468.731 110.226 469.659 106.846 470.311 103.443 C 471.703 96.8928 472.984 90.331 474.189 83.7472 C 474.862 80.1128 475.448 76.4674 475.89 72.7999 C 475.901 69.3865 487.412 69.3865 487.412 72.7999 Z M 493.808 34.3574 C 493.697 38.2679 493.101 42.1674 492.482 46.0338 C 491.896 49.7455 491.189 53.4461 490.494 57.1467 C 489.864 60.5049 478.552 58.384 479.182 55.0258 C 479.856 51.4245 480.54 47.8233 481.115 44.211 C 481.645 40.9522 482.153 37.6604 482.297 34.3684 C 482.297 30.9329 493.808 30.9329 493.808 34.3574 Z" stroke-linecap="round" />
</g>
		<g transform="matrix(1 0 0 1 228.41 30.48)"  >
<path style="stroke: none; stroke-width: 1; stroke-dasharray: none; stroke-linecap: butt; stroke-dashoffset: 0; stroke-linejoin: miter; stroke-miterlimit: 4; fill: rgb(24,130,255); fill-rule: nonzero; opacity: 1;" vector-effect="non-scaling-stroke"  transform=" translate(-512.41, -110.48)" d="M 537.674 88.4306 C 537.078 89.6237 536.36 90.7615 535.708 91.9325 C 530.925 99.4 524.44 104.647 517.216 109.585 C 512.3 112.501 507.086 115.705 501.496 117.185 C 500.977 117.318 500.447 117.428 499.916 117.528 C 498.436 127.028 497.022 136.55 496.072 146.128 C 495.719 149.895 495.542 153.672 495.365 157.439 C 495.211 160.853 483.711 160.345 483.866 156.931 C 484.042 152.943 484.241 148.956 484.617 144.979 C 485.732 133.822 487.412 122.742 489.168 111.673 C 491.057 100.759 493.012 89.8667 495.089 78.9857 C 496.094 73.8821 497.111 68.7785 498.514 63.7633 C 499.497 60.4935 510.521 63.7965 509.538 67.0663 C 508.743 69.9384 508.091 72.8327 507.483 75.749 C 509.096 72.9542 510.919 70.303 513.051 67.8396 C 516.011 64.9343 519.569 62.4377 523.7 61.554 C 524.573 61.3662 525.456 61.322 526.34 61.2116 C 530.902 61.1232 535.597 62.5703 538.315 66.525 C 539.022 67.5413 539.442 68.7233 540.016 69.817 C 540.281 71.021 540.679 72.203 540.822 73.4403 C 541.441 78.6212 539.961 83.8352 537.674 88.4306 Z M 529.444 74.3792 C 529.798 73.153 528.428 72.7001 527.456 72.678 C 525.224 72.5897 523.313 74.0478 521.701 75.4507 C 519.005 78.4334 517.061 81.9462 515.327 85.5585 C 513.007 90.651 510.886 95.8319 508.964 101.09 C 509.549 100.748 510.146 100.394 510.731 100.063 C 516.398 96.2296 521.866 91.9877 525.711 86.2213 C 527.831 82.5759 529.864 78.7427 529.444 74.3792 Z" stroke-linecap="round" />
</g>
		<g transform="matrix(1 0 0 1 -94.6 -1.99)"  >
<path style="stroke: none; stroke-width: 1; stroke-dasharray: none; stroke-linecap: butt; stroke-dashoffset: 0; stroke-linejoin: miter; stroke-miterlimit: 4; fill: rgb(24,130,255); fill-rule: nonzero; opacity: 1;" vector-effect="non-scaling-stroke"  transform=" translate(-189.4, -78.01)" d="M 220.711 83.692 L 220.402 83.1286 C 217.96 78.7541 214.492 75.65 210.073 73.8936 C 207.996 72.7447 203.644 71.6621 189.537 71.7063 L 189.438 71.7063 C 179.197 72.0267 176.292 70.2371 175.95 69.3865 C 175.961 69.2098 175.983 68.8784 176.038 68.2818 C 176.657 65.4649 178.667 61.9521 182.003 57.8317 C 188.742 51.1594 191.956 48.7402 193.481 47.8896 L 193.746 47.7239 C 201.004 42.775 207.256 39.4831 212.36 37.9144 L 212.349 37.9476 C 211.719 39.7592 209.487 43.6035 202.484 51.6124 C 199.004 54.5839 197.358 56.1636 197.745 58.5718 C 198.176 61.2561 200.252 64.073 204.793 63.8631 L 205.654 63.7527 C 207.245 63.4986 209.134 62.4934 213.133 58.4503 L 213.354 58.1962 C 225.395 43.5151 226.345 37.9586 225.826 34.7661 L 225.505 32.7556 L 225.229 32.2254 C 224.754 31.3196 223.981 29.8614 222.81 28.8672 C 220.678 25.8735 215.254 25.8735 212.415 25.8735 L 211.929 25.8735 L 211.454 26.0061 C 206.184 27.4532 202.506 28.8451 200.241 30.2812 C 195.767 32.137 189.868 35.7272 182.235 41.2395 L 182.036 41.3941 C 168.548 52.5845 162.616 61.93 163.909 69.9499 C 164.273 72.1924 165.422 74.4349 167.322 76.6111 C 170.106 79.914 174.922 81.9576 182.058 82.8414 L 182.401 82.8635 C 188.311 83.0402 194.21 83.0955 199.932 83.0181 C 205.058 83.3274 208.195 84.4763 209.278 86.4205 L 209.498 87.7903 C 209.498 87.8014 209.565 88.7845 207.919 91.4247 C 205.378 94.8492 202.771 97.3899 200.175 98.9917 L 192.962 104.018 C 185.306 108.569 175.287 113.231 163.235 117.859 C 156.662 120.279 154.729 121.604 153.757 122.952 L 152.873 124.178 L 153.414 127.514 L 154.574 128.398 C 156.088 129.547 157.767 130.143 159.479 130.143 C 159.877 130.143 160.285 130.11 160.683 130.044 L 161.556 129.9 L 162.473 129.657 C 162.76 129.668 163.058 129.657 163.345 129.613 L 163.677 129.558 L 172.359 126.399 L 172.481 126.354 C 207.786 112.049 223.329 99.787 221.396 87.7903 L 220.711 83.692 Z" stroke-linecap="round" />
</g>
		<g transform="matrix(1 0 0 1 -212 0)"  >
<path style="stroke: none; stroke-width: 1; stroke-dasharray: none; stroke-linecap: butt; stroke-dashoffset: 0; stroke-linejoin: miter; stroke-miterlimit: 4; fill: rgb(24,130,255); fill-rule: nonzero; opacity: 1;" vector-effect="non-scaling-stroke"  transform=" translate(-72, -80)" d="M 13.9804 112.347 C 11.054 112.907 9.3851 113.376 8.40201 113.788 C 3.04073 103.703 0 92.2115 0 80.0114 C 0 40.2554 32.2248 8 71.9943 8 C 101.201 8 126.327 25.4026 137.621 50.3745 L 136.101 50.546 L 92.5249 42.4964 C 92.2277 42.4278 91.9304 42.5536 91.7132 42.7823 C 91.5075 43.0109 91.4275 43.3082 91.5189 43.6055 L 93.8166 51.6894 C 93.9195 52.0781 94.2739 52.3182 94.6625 52.3411 L 119.583 52.4783 L 115.022 53.0043 C 114.999 53.0043 114.987 53.0272 114.987 53.0272 L 93.3822 56.5831 C 79.6533 59.4188 70.8397 60.9624 67.1131 61.1567 C 67.4675 60.5965 67.7304 60.0819 67.959 59.5903 C 68.5534 59.1329 69.3079 58.6413 70.2339 58.0696 C 73.0231 57.3835 73.4461 55.5769 73.4461 54.5593 L 73.4461 54.0677 C 73.4461 53.3816 73.1603 52.6841 72.6344 52.0095 L 72.463 51.8037 C 72.3029 51.5979 72.04 51.4721 71.7771 51.4721 L 71.4913 51.4721 C 70.4968 51.4721 69.4223 51.6436 68.1305 52.0667 C 67.7076 52.2611 67.3189 52.4554 66.9417 52.6498 C 66.13 51.5293 64.2096 50.7861 60.7002 50.2258 C 60.6316 50.2029 60.4715 50.2029 60.403 50.2258 C 56.322 50.6603 53.4984 51.2549 51.9552 51.9752 C 48.5487 52.7413 43.6447 54.7423 37.346 57.9209 C 26.4749 64.3354 21.1936 70.1782 21.1936 75.7694 C 21.1936 77.2215 21.6966 78.7994 22.714 80.4116 C 24.2 82.9042 27.3093 84.8137 32.2705 86.2544 C 36.6144 87.1005 40.9812 87.8323 45.1422 88.4497 C 49.7833 89.4673 52.3667 91.1482 52.824 93.435 C 52.7668 93.5379 52.7326 93.6637 52.7326 93.8009 L 52.7326 94.384 C 52.7326 94.7384 52.5382 95.7675 50.8235 97.7113 C 48.4001 100.078 45.9995 101.782 43.6561 102.742 L 37.8833 105.532 C 31.6189 108.048 23.5484 110.323 13.9804 112.347 Z M 139.165 54.0791 C 138.399 54.7079 136.638 55.3825 132.832 56.4688 C 132.797 56.4688 132.672 56.5031 132.637 56.5031 C 129.917 56.869 127.185 57.2578 124.452 57.6808 L 97.7833 65.4445 C 94.9598 71.596 92.5363 77.1301 90.593 81.8981 L 90.4329 82.1839 C 90.2729 82.424 89.5413 83.8647 85.4832 93.8809 C 84.2715 96.3849 83.357 98.5345 82.7168 100.261 C 82.5796 100.661 82.0538 101.908 79.5618 107.556 L 75.5494 116.863 C 75.5151 116.92 75.4808 116.989 75.4465 117.035 C 73.6633 119.39 72.7488 119.802 72.0286 119.893 C 71.9714 119.905 71.8914 119.905 71.8228 119.905 C 71.6856 119.905 71.537 119.893 71.457 119.848 C 70.2682 119.39 69.7194 118.773 69.7194 117.95 C 69.7194 115.514 71.6971 109.9 75.9266 100.284 C 80.0419 90.4964 84.8545 78.8566 90.2043 65.6503 C 90.2272 65.616 90.2729 65.5131 90.2958 65.4788 C 90.6501 64.8499 90.9816 64.1639 91.2903 63.4435 C 80.4077 65.4788 73.8576 66.6222 71.8114 66.828 L 68.3363 67.3197 C 68.0505 67.3197 67.8104 67.2854 67.6161 67.2168 L 66.21 67.3197 C 64.724 67.3197 63.5809 67.0567 62.6321 66.6336 C 61.066 68.2687 59.2141 70.0181 57.0079 71.9847 C 53.5556 74.5231 52.2867 74.8547 51.498 74.8547 L 51.1665 74.8547 C 48.8574 74.5917 47.5427 73.2768 47.5427 71.3444 C 47.5427 70.4183 48.0686 69.8009 51.3951 67.7885 C 55.6247 64.2782 57.9909 61.8999 59.317 60.2992 C 59.6485 58.9271 60.3458 57.6694 61.4203 56.4917 C 61.2831 56.4574 61.1231 56.4573 60.986 56.4002 C 56.6764 56.6746 50.9721 58.4698 44.0676 61.717 C 42.09 62.4488 38.6835 64.5526 33.8823 67.9828 C 30.7616 70.7842 28.7154 73.3683 27.8695 75.6322 C 27.698 76.3297 27.6408 76.6155 27.6294 76.7184 C 27.6294 78.7308 31.5732 80.4345 38.4434 81.3264 C 49.2803 83.0072 51.8866 84.3564 52.904 85.2139 C 55.659 86.7918 57.7052 89.3187 58.9169 92.6003 L 58.9855 92.9547 L 59.0083 95.7561 C 59.0083 104.16 46.3882 110.975 19.2731 117.183 L 12.6316 118.464 C 12.5744 118.487 12.4715 118.487 12.4258 118.487 C 12.2315 118.487 12.0372 118.453 11.8657 118.395 L 11.2484 118.464 L 11.1455 118.464 C 23.9143 138.611 46.3882 152 72.0057 152 C 91.8847 152 109.878 143.928 122.921 130.904 C 135.93 117.869 144 99.8609 144 79.9771 C 143.989 70.8642 142.285 62.1172 139.165 54.0791 Z" stroke-linecap="round" />
</g>
</g>
</g>
</svg>